<?xml version="1.0" encoding="UTF-8"?><svg id="b" xmlns="http://www.w3.org/2000/svg" viewBox="0 0 1885.64 132.59"><g id="c"><path d="M46.74,2.84h17.95l46.92,127.08h-17.42l-13.51-38.75H30.04l-13.69,38.75H0L46.74,2.84ZM34.66,78.2h41.59l-14.57-42.66c-2.49-7.11-5.69-17.95-5.69-17.95h-.36s-3.38,10.66-5.87,17.95l-15.11,42.66Z"/><path d="M125.31,2.84h16v112.33h66.65v14.75h-82.65V2.84Z"/><path d="M223.77,2.84h89.76v14.04h-73.76v40.17h67.01v13.51h-67.01v44.61h75.89v14.75h-91.89V2.84Z"/><path d="M324.55,86.91h15.64c2.13,21.51,15.29,32.7,39.28,32.7,17.6,0,30.21-8,30.21-23.82,0-17.42-15.29-21.51-38.04-26.48-22.39-4.98-41.59-11.38-41.59-35.37,0-20.97,17.42-33.59,43.19-33.59,31.81,0,44.97,16.17,48.17,39.63h-15.11c-2.31-18.13-14.04-27.19-32.7-27.19-17.24,0-28.62,7.29-28.62,20.44,0,14.4,14.22,18.66,33.24,22.39,24.71,4.98,47.28,11.02,47.28,39.63,0,23.82-19.37,37.15-46.74,37.15-35.72,0-52.79-19.91-54.21-45.5Z"/><path d="M435.82,86.91h15.64c2.13,21.51,15.29,32.7,39.28,32.7,17.6,0,30.21-8,30.21-23.82,0-17.42-15.29-21.51-38.04-26.48-22.39-4.98-41.59-11.38-41.59-35.37,0-20.97,17.42-33.59,43.19-33.59,31.81,0,44.97,16.17,48.17,39.63h-15.11c-2.31-18.13-14.04-27.19-32.7-27.19-17.24,0-28.62,7.29-28.62,20.44,0,14.4,14.22,18.66,33.24,22.39,24.71,4.98,47.28,11.02,47.28,39.63,0,23.82-19.37,37.15-46.74,37.15-35.72,0-52.79-19.91-54.21-45.5Z"/><path d="M590.81,2.84h17.95l46.92,127.08h-17.42l-13.51-38.75h-50.65l-13.69,38.75h-16.35L590.81,2.84ZM578.72,78.2h41.59l-14.57-42.66c-2.49-7.11-5.69-17.95-5.69-17.95h-.36s-3.38,10.66-5.87,17.95l-15.11,42.66Z"/><path d="M669.37,2.84h16.88l57.94,88.33c4.27,6.58,9.24,16.35,9.24,16.35h.36V2.84h14.93v127.08h-16.35l-58.3-88.51c-4.09-6.22-9.42-15.82-9.42-15.82h-.36v104.33h-14.93V2.84Z"/><path d="M792.54,2.84h46.21c38.21,0,56.34,25.95,56.34,63.98s-19.37,63.1-57.59,63.1h-44.97V2.84ZM836.98,115.88c29.86,0,41.77-19.2,41.77-49.05s-10.66-50.12-40.52-50.12h-29.68v99.18h28.44Z"/><path d="M914.12,2.84h59.36c22.39,0,37.5,14.04,37.5,34.84,0,15.46-6.75,26.48-22.04,31.46v.53c12.97,4.62,17.06,13.51,18.31,32.35,1.42,20.44,3.55,25.59,5.87,27.19v.71h-17.24c-2.67-2.31-3.2-7.11-4.62-28.44-1.24-18.66-8.71-25.24-25.77-25.24h-35.37v53.68h-16V2.84ZM930.11,63.27h37.68c17.77,0,26.66-8.89,26.66-23.28,0-15.46-7.11-23.28-25.77-23.28h-38.57v46.57Z"/><path d="M1025.56,66.29c0-38.04,23.82-66.29,62.21-66.29s62.21,28.26,62.21,66.29-23.82,66.29-62.21,66.29-62.21-28.26-62.21-66.29ZM1133.62,66.29c0-29.86-16-52.43-45.86-52.43s-45.86,22.57-45.86,52.43,16,52.25,45.86,52.25,45.86-22.39,45.86-52.25Z"/><path d="M1189.26,2.84h100.6v14.04h-42.3v113.04h-16V16.88h-42.3V2.84Z"/><path d="M1326.29,2.84h17.95l46.92,127.08h-17.42l-13.51-38.75h-50.65l-13.69,38.75h-16.35l46.74-127.08ZM1314.21,78.2h41.59l-14.57-42.66c-2.49-7.11-5.69-17.95-5.69-17.95h-.36s-3.38,10.66-5.87,17.95l-15.11,42.66Z"/><path d="M1404.86,2.84h16v112.33h66.65v14.75h-82.65V2.84Z"/><path d="M1539.94,2.84h17.95l46.92,127.08h-17.42l-13.51-38.75h-50.65l-13.69,38.75h-16.35l46.74-127.08ZM1527.85,78.2h41.59l-14.57-42.66c-2.49-7.11-5.69-17.95-5.69-17.95h-.36s-3.38,10.66-5.87,17.95l-15.11,42.66Z"/><path d="M1618.5,2.84h20.44l41.23,105.57h.36l40.88-105.57h20.79v127.08h-15.29V25.42h-.36s-3.38,9.95-5.69,16l-34.84,88.51h-12.26l-34.84-88.51c-2.49-6.4-5.69-16-5.69-16h-.36v104.51h-14.4V2.84Z"/><path d="M1761.22,66.29c0-38.04,23.82-66.29,62.21-66.29s62.21,28.26,62.21,66.29-23.82,66.29-62.21,66.29-62.21-28.26-62.21-66.29ZM1869.29,66.29c0-29.86-16-52.43-45.86-52.43s-45.86,22.57-45.86,52.43,16,52.25,45.86,52.25,45.86-22.39,45.86-52.25Z"/></g></svg>