<?xml version="1.0" encoding="UTF-8"?><svg id="b" xmlns="http://www.w3.org/2000/svg" width="1115.63" height="182.17" viewBox="0 0 1115.63 182.17"><g id="c"><path d="M686.11,90.75c0,50.3-33.01,90.97-85.48,90.97s-85.19-40.67-85.19-90.75S547.87,0,600.33,0s85.78,40.45,85.78,90.75ZM591.79,5.47c-37.73,0-57.31,31.1-57.31,70.46,0,49.64,26.07,100.54,75,100.54,37.43,0,58.07-31.93,58.07-70.19,0-50.29-26.23-100.81-75.75-100.81Z" fill="#ec1111" stroke-width="0"/><path d="M1115.63,177.9l-74.7-164.03c-1.68-3.66-3.59-8.04-4.31-11.94h-48.61v2.57s10.01,0,10.01,0c17.88,0,23.36,4.76,27.89,14.71l12.87,28.63-59.12,130.07h39.53v-1.47c-18.94-1.22-23.26-3.66-23.02-11.47.24-4.64,3.84-14.65,8.39-26.12l1.92-4.88c3.36-8.06,6.95-16.35,11.75-27.34h46.76l12.47,27.34,2.16,4.88,8.39,18.55c3.36,7.32,5.52,15.14,3.12,20.51h24.49ZM1019.67,102.16c7.03-15.03,13.83-30.3,20.86-45.33l20.63,45.33h-41.48Z" fill="#ec1111" stroke-width="0"/><path d="M342.51,177.6L267.95,13.84c-1.67-3.65-3.58-8.03-4.3-11.92h-48.52v2.57l9.98-.04c17.85,0,23.33,4.78,27.85,14.71l12.85,28.59-59.01,129.85h39.51v-1.46c-18.91-1.22-23.22-3.65-22.98-11.45.24-4.63,3.83-14.62,8.38-26.07l1.92-4.88c3.35-8.04,6.94-16.33,11.73-27.29h46.68l12.45,27.29,2.15,4.88,8.38,18.52c3.35,7.31,5.51,15.11,3.11,20.47h24.39ZM248.98,101.99c7.03-15.03,13.83-30.3,20.86-45.34l20.63,45.34h-41.48Z" fill="#ec1111" stroke-width="0"/><path d="M374.21,123.12v31.59h0c-.07,10.56-3.51,14.34-7.32,16.17-3.47,1.66-9.26,2.53-18.68,3.38v3.47h0s3,0,3,0h34.36s27.05,0,27.05,0c60.54-.14,94.49-33.68,94.49-86.47,0-56.7-41.55-89.51-96.26-89.51h-59.63c-.43,0-.78,0-1.1,0h-11.97v2.68h0q36.33.04,36.07,28.1M413.52,171.64c-11.74-.02-22.84,2.18-22.84-11.29V21.74c0-11.52,5.25-13.47,19.24-13.47,45.47,0,77.04,32.96,77,81.81-.04,41.01-9.88,81.66-73.4,81.57Z" fill="#ec1111" stroke-width="0"/><path d="M970.42,1.92h-30.85v2.57c19.6,0,24.5,2.52,24.5,29.38v115.67L839.59,1.92h-33.68v2.57c16.09,0,23.9,7.36,28.96,14.13v77.38l-.16,53.54L711.77,1.92h-35.05v2.57c16.09,0,20.22,3.16,28.96,14.13v130.52c0,4.87-.05,8.72-.18,11.99-.24,5.92-2.01,11.69-5.17,16.69l-.05.08h19.82s-.16-.16-.45-.48c-4.5-4.89-7-11.26-7.21-17.89-.05-1.72,0,2,0,0l-.07-131.01,55.26,68.56,67.63,85.09h3.98l.02-85.93.08-67.73,125.98,153.66h3.03l-.04-147.82c0-16.94.47-23.23,2.12-32.43Z" fill="#ec1111" stroke-width="0"/><path d="M198.05,177.56c-4-6.32-8.23-13.36-10.35-26.73l-20.23-130.01c-1.88-11.91,4.25-16.67,15.31-16.67h6.1V1.59s-29.61,0-29.61,0l-57.19,145.56-3.05,8.39-3.05-8.38L38.79,1.59H9.17v2.57h6.1c11.05,0,17.19,4.77,15.31,16.67L10.35,150.84c-2.12,13.37-6.35,20.41-10.35,26.73h26.69s-4.43-12.04-2.33-25.06l19.37-116.18,55.17,145.36.12.33h0s0,0,0,0l.37-1,54.92-144.7,19.37,116.18c2.1,13.02-2.33,25.06-2.33,25.06h26.69Z" fill="#ec1111" stroke-width="0"/></g></svg>