<?xml version="1.0" encoding="UTF-8"?><svg id="a" xmlns="http://www.w3.org/2000/svg" width="1566.02" height="110.12" viewBox="0 0 1566.02 110.12"><path d="M38.82,2.36h14.91l38.97,105.54h-14.47l-11.22-32.18H24.95l-11.37,32.18H0L38.82,2.36ZM28.78,64.95h34.54l-12.1-35.43c-2.07-5.9-4.72-14.91-4.72-14.91h-.3s-2.8,8.86-4.87,14.91l-12.55,35.43Z"/><path d="M104.07,2.36h13.29v93.29h55.35v12.25h-68.64V2.36Z"/><path d="M185.84,2.36h74.54v11.66h-61.26v33.36h55.65v11.22h-55.65v37.05h63.03v12.25h-76.32V2.36Z"/><path d="M269.54,72.18h12.99c1.77,17.86,12.69,27.16,32.62,27.16,14.61,0,25.09-6.64,25.09-19.78,0-14.47-12.69-17.86-31.59-21.99-18.6-4.13-34.54-9.45-34.54-29.38,0-17.42,14.47-27.9,35.87-27.9,26.42,0,37.35,13.43,40,32.92h-12.55c-1.92-15.06-11.66-22.58-27.16-22.58-14.32,0-23.77,6.05-23.77,16.98,0,11.96,11.81,15.5,27.6,18.6,20.52,4.13,39.27,9.15,39.27,32.92,0,19.78-16.09,30.85-38.82,30.85-29.67,0-43.84-16.53-45.02-37.79Z"/><path d="M361.94,72.18h12.99c1.77,17.86,12.69,27.16,32.62,27.16,14.61,0,25.09-6.64,25.09-19.78,0-14.47-12.69-17.86-31.59-21.99-18.6-4.13-34.54-9.45-34.54-29.38,0-17.42,14.47-27.9,35.87-27.9,26.42,0,37.35,13.43,40,32.92h-12.55c-1.92-15.06-11.66-22.58-27.16-22.58-14.32,0-23.77,6.05-23.77,16.98,0,11.96,11.81,15.5,27.6,18.6,20.52,4.13,39.27,9.15,39.27,32.92,0,19.78-16.09,30.85-38.82,30.85-29.67,0-43.84-16.53-45.02-37.79Z"/><path d="M490.66,2.36h14.91l38.97,105.54h-14.47l-11.22-32.18h-42.07l-11.37,32.18h-13.58L490.66,2.36ZM480.63,64.95h34.54l-12.1-35.43c-2.07-5.9-4.72-14.91-4.72-14.91h-.3s-2.8,8.86-4.87,14.91l-12.55,35.43Z"/><path d="M555.91,2.36h14.02l48.12,73.36c3.54,5.46,7.68,13.58,7.68,13.58h.29V2.36h12.4v105.54h-13.58l-48.42-73.51c-3.4-5.17-7.82-13.14-7.82-13.14h-.3v86.65h-12.4V2.36Z"/><path d="M658.2,2.36h38.38c31.74,0,46.79,21.55,46.79,53.14s-16.09,52.4-47.83,52.4h-37.35V2.36ZM695.11,96.24c24.8,0,34.69-15.94,34.69-40.74s-8.86-41.63-33.66-41.63h-24.65v82.37h23.62Z"/><path d="M759.17,2.36h49.3c18.6,0,31.15,11.66,31.15,28.93,0,12.84-5.61,21.99-18.3,26.13v.44c10.78,3.84,14.17,11.22,15.2,26.87,1.18,16.98,2.95,21.26,4.87,22.58v.59h-14.32c-2.21-1.92-2.66-5.9-3.84-23.62-1.03-15.5-7.23-20.96-21.4-20.96h-29.38v44.58h-13.29V2.36ZM772.46,52.55h31.29c14.76,0,22.14-7.38,22.14-19.34,0-12.84-5.91-19.34-21.4-19.34h-32.03v38.67Z"/><path d="M851.72,55.06c0-31.59,19.78-55.06,51.67-55.06s51.67,23.47,51.67,55.06-19.78,55.06-51.67,55.06-51.67-23.47-51.67-55.06ZM941.47,55.06c0-24.8-13.29-43.55-38.08-43.55s-38.08,18.75-38.08,43.55,13.29,43.4,38.08,43.4,38.08-18.6,38.08-43.4Z"/><path d="M987.67,2.36h83.55v11.66h-35.13v93.88h-13.29V14.02h-35.13V2.36Z"/><path d="M1101.48,2.36h14.91l38.97,105.54h-14.47l-11.22-32.18h-42.07l-11.37,32.18h-13.58l38.82-105.54ZM1091.44,64.95h34.54l-12.1-35.43c-2.07-5.9-4.72-14.91-4.72-14.91h-.3s-2.8,8.86-4.87,14.91l-12.55,35.43Z"/><path d="M1166.73,2.36h13.29v93.29h55.35v12.25h-68.64V2.36Z"/><path d="M1278.91,2.36h14.91l38.97,105.54h-14.47l-11.22-32.18h-42.07l-11.37,32.18h-13.58l38.82-105.54ZM1268.87,64.95h34.54l-12.1-35.43c-2.07-5.9-4.72-14.91-4.72-14.91h-.3s-2.8,8.86-4.87,14.91l-12.55,35.43Z"/><path d="M1344.16,2.36h16.98l34.25,87.68h.29l33.95-87.68h17.27v105.54h-12.69V21.11h-.3s-2.8,8.27-4.72,13.29l-28.93,73.51h-10.19l-28.93-73.51c-2.07-5.31-4.72-13.29-4.72-13.29h-.29v86.8h-11.96V2.36Z"/><path d="M1462.69,55.06c0-31.59,19.78-55.06,51.67-55.06s51.67,23.47,51.67,55.06-19.78,55.06-51.67,55.06-51.67-23.47-51.67-55.06ZM1552.44,55.06c0-24.8-13.29-43.55-38.08-43.55s-38.08,18.75-38.08,43.55,13.29,43.4,38.08,43.4,38.08-18.6,38.08-43.4Z"/></svg>