<?xml version="1.0" encoding="UTF-8"?>
<svg xmlns="http://www.w3.org/2000/svg" version="1.1" viewBox="0 0 2000 2000">
  <!-- Generator: Adobe Illustrator 28.7.0, SVG Export Plug-In . SVG Version: 1.2.0 Build 136)  -->
  <g>
    <g id="Layer_1">
      <g>
        <path d="M101.3,928.9h18l46.9,127.1h-17.4l-13.5-38.7h-50.7l-13.7,38.7h-16.4l46.7-127.1ZM89.2,1004.2h41.6l-14.6-42.7c-2.5-7.1-5.7-18-5.7-18h-.4s-3.4,10.7-5.9,18l-15.1,42.7Z"/>
        <path d="M179.8,928.9h16v112.3h66.7v14.8h-82.6v-127.1Z"/>
        <path d="M278.3,928.9h89.8v14h-73.8v40.2h67v13.5h-67v44.6h75.9v14.8h-91.9v-127.1Z"/>
        <path d="M379.1,1012.9h15.6c2.1,21.5,15.3,32.7,39.3,32.7s30.2-8,30.2-23.8-15.3-21.5-38-26.5c-22.4-5-41.6-11.4-41.6-35.4s17.4-33.6,43.2-33.6,45,16.2,48.2,39.6h-15.1c-2.3-18.1-14-27.2-32.7-27.2s-28.6,7.3-28.6,20.4,14.2,18.7,33.2,22.4c24.7,5,47.3,11,47.3,39.6s-19.4,37.1-46.7,37.1-52.8-19.9-54.2-45.5Z"/>
        <path d="M490.3,1012.9h15.6c2.1,21.5,15.3,32.7,39.3,32.7s30.2-8,30.2-23.8-15.3-21.5-38-26.5c-22.4-5-41.6-11.4-41.6-35.4s17.4-33.6,43.2-33.6,45,16.2,48.2,39.6h-15.1c-2.3-18.1-14-27.2-32.7-27.2s-28.6,7.3-28.6,20.4,14.2,18.7,33.2,22.4c24.7,5,47.3,11,47.3,39.6s-19.4,37.1-46.7,37.1-52.8-19.9-54.2-45.5Z"/>
        <path d="M645.3,928.9h18l46.9,127.1h-17.4l-13.5-38.7h-50.7l-13.7,38.7h-16.4l46.7-127.1ZM633.2,1004.2h41.6l-14.6-42.7c-2.5-7.1-5.7-18-5.7-18h-.4s-3.4,10.7-5.9,18l-15.1,42.7Z"/>
        <path d="M723.9,928.9h16.9l57.9,88.3c4.3,6.6,9.2,16.4,9.2,16.4h.4v-104.7h14.9v127.1h-16.4l-58.3-88.5c-4.1-6.2-9.4-15.8-9.4-15.8h-.4v104.3h-14.9v-127.1Z"/>
        <path d="M847.1,928.9h46.2c38.2,0,56.3,25.9,56.3,64s-19.4,63.1-57.6,63.1h-45v-127.1ZM891.5,1041.9c29.9,0,41.8-19.2,41.8-49.1s-10.7-50.1-40.5-50.1h-29.7v99.2h28.4Z"/>
        <path d="M968.6,928.9h59.4c22.4,0,37.5,14,37.5,34.8s-6.8,26.5-22,31.5v.5c13,4.6,17.1,13.5,18.3,32.3,1.4,20.4,3.6,25.6,5.9,27.2v.7h-17.2c-2.7-2.3-3.2-7.1-4.6-28.4s-8.7-25.2-25.8-25.2h-35.4v53.7h-16v-127.1ZM984.6,989.3h37.7c17.8,0,26.7-8.9,26.7-23.3s-7.1-23.3-25.8-23.3h-38.6v46.6Z"/>
        <path d="M1080.1,992.3c0-38,23.8-66.3,62.2-66.3s62.2,28.3,62.2,66.3-23.8,66.3-62.2,66.3-62.2-28.3-62.2-66.3ZM1188.1,992.3c0-29.9-16-52.4-45.9-52.4s-45.9,22.6-45.9,52.4,16,52.3,45.9,52.3,45.9-22.4,45.9-52.3Z"/>
        <path d="M1243.8,928.9h100.6v14h-42.3v113h-16v-113h-42.3v-14Z"/>
        <path d="M1380.8,928.9h18l46.9,127.1h-17.4l-13.5-38.7h-50.7l-13.7,38.7h-16.4l46.7-127.1ZM1368.7,1004.2h41.6l-14.6-42.7c-2.5-7.1-5.7-18-5.7-18h-.4s-3.4,10.7-5.9,18l-15.1,42.7Z"/>
        <path d="M1459.4,928.9h16v112.3h66.7v14.8h-82.6v-127.1Z"/>
        <path d="M1594.4,928.9h18l46.9,127.1h-17.4l-13.5-38.7h-50.7l-13.7,38.7h-16.4l46.7-127.1ZM1582.4,1004.2h41.6l-14.6-42.7c-2.5-7.1-5.7-18-5.7-18h-.4s-3.4,10.7-5.9,18l-15.1,42.7Z"/>
        <path d="M1673,928.9h20.4l41.2,105.6h.4l40.9-105.6h20.8v127.1h-15.3v-104.5h-.4s-3.4,10-5.7,16l-34.8,88.5h-12.3l-34.8-88.5c-2.5-6.4-5.7-16-5.7-16h-.4v104.5h-14.4v-127.1Z"/>
        <path d="M1815.7,992.3c0-38,23.8-66.3,62.2-66.3s62.2,28.3,62.2,66.3-23.8,66.3-62.2,66.3-62.2-28.3-62.2-66.3ZM1923.8,992.3c0-29.9-16-52.4-45.9-52.4s-45.9,22.6-45.9,52.4,16,52.3,45.9,52.3,45.9-22.4,45.9-52.3Z"/>
      </g>
    </g>
  </g>
</svg>