<?xml version="1.0" encoding="UTF-8"?>
<svg xmlns="http://www.w3.org/2000/svg" version="1.1" viewBox="0 0 2000 2000">
  <!-- Generator: Adobe Illustrator 28.7.0, SVG Export Plug-In . SVG Version: 1.2.0 Build 136)  -->
  <g>
    <g id="Layer_1">
      <g>
        <path d="M146.7,958.7h16.8l43.9,119h-16.3l-12.6-36.3h-47.4l-12.8,36.3h-15.3l43.8-119ZM135.4,1029.2h38.9l-13.6-39.9c-2.3-6.7-5.3-16.8-5.3-16.8h-.3s-3.2,10-5.5,16.8l-14.1,39.9Z"/>
        <path d="M220.2,958.7h15v105.1h62.4v13.8h-77.4v-119Z"/>
        <path d="M312.4,958.7h84v13.1h-69v37.6h62.7v12.6h-62.7v41.8h71v13.8h-86v-119Z"/>
        <path d="M406.7,1037.4h14.6c2,20.1,14.3,30.6,36.8,30.6s28.3-7.5,28.3-22.3-14.3-20.1-35.6-24.8c-21-4.7-38.9-10.6-38.9-33.1s16.3-31.4,40.4-31.4,42.1,15.1,45.1,37.1h-14.1c-2.2-17-13.1-25.5-30.6-25.5s-26.8,6.8-26.8,19.1,13.3,17.5,31.1,21c23.1,4.7,44.3,10.3,44.3,37.1s-18.1,34.8-43.8,34.8-49.4-18.6-50.7-42.6Z"/>
        <path d="M510.9,1037.4h14.6c2,20.1,14.3,30.6,36.8,30.6s28.3-7.5,28.3-22.3-14.3-20.1-35.6-24.8c-21-4.7-38.9-10.6-38.9-33.1s16.3-31.4,40.4-31.4,42.1,15.1,45.1,37.1h-14.1c-2.2-17-13.1-25.5-30.6-25.5s-26.8,6.8-26.8,19.1,13.3,17.5,31.1,21c23.1,4.7,44.3,10.3,44.3,37.1s-18.1,34.8-43.8,34.8-49.4-18.6-50.7-42.6Z"/>
        <path d="M656,958.7h16.8l43.9,119h-16.3l-12.6-36.3h-47.4l-12.8,36.3h-15.3l43.8-119ZM644.6,1029.2h38.9l-13.6-39.9c-2.3-6.7-5.3-16.8-5.3-16.8h-.3s-3.2,10-5.5,16.8l-14.1,39.9Z"/>
        <path d="M729.5,958.7h15.8l54.2,82.7c4,6.2,8.7,15.3,8.7,15.3h.3v-98h14v119h-15.3l-54.6-82.9c-3.8-5.8-8.8-14.8-8.8-14.8h-.3v97.7h-14v-119Z"/>
        <path d="M844.8,958.7h43.3c35.8,0,52.7,24.3,52.7,59.9s-18.1,59.1-53.9,59.1h-42.1v-119ZM886.4,1064.5c27.9,0,39.1-18,39.1-45.9s-10-46.9-37.9-46.9h-27.8v92.8h26.6Z"/>
        <path d="M958.6,958.7h55.6c21,0,35.1,13.1,35.1,32.6s-6.3,24.8-20.6,29.4v.5c12.1,4.3,16,12.6,17.1,30.3,1.3,19.1,3.3,24,5.5,25.5v.7h-16.1c-2.5-2.2-3-6.7-4.3-26.6-1.2-17.5-8.2-23.6-24.1-23.6h-33.1v50.2h-15v-119ZM973.5,1015.3h35.3c16.6,0,25-8.3,25-21.8s-6.7-21.8-24.1-21.8h-36.1v43.6Z"/>
        <path d="M1062.9,1018.1c0-35.6,22.3-62.1,58.2-62.1s58.2,26.5,58.2,62.1-22.3,62.1-58.2,62.1-58.2-26.5-58.2-62.1ZM1164,1018.1c0-27.9-15-49.1-42.9-49.1s-42.9,21.1-42.9,49.1,15,48.9,42.9,48.9,42.9-21,42.9-48.9Z"/>
        <path d="M1216.1,958.7h94.2v13.1h-39.6v105.8h-15v-105.8h-39.6v-13.1Z"/>
        <path d="M1344.4,958.7h16.8l43.9,119h-16.3l-12.6-36.3h-47.4l-12.8,36.3h-15.3l43.8-119ZM1333.1,1029.2h38.9l-13.6-39.9c-2.3-6.7-5.3-16.8-5.3-16.8h-.3s-3.2,10-5.5,16.8l-14.1,39.9Z"/>
        <path d="M1417.9,958.7h15v105.1h62.4v13.8h-77.4v-119Z"/>
        <path d="M1544.3,958.7h16.8l43.9,119h-16.3l-12.6-36.3h-47.4l-12.8,36.3h-15.3l43.8-119ZM1533,1029.2h38.9l-13.6-39.9c-2.3-6.7-5.3-16.8-5.3-16.8h-.3s-3.2,10-5.5,16.8l-14.1,39.9Z"/>
        <path d="M1617.9,958.7h19.1l38.6,98.8h.3l38.3-98.8h19.5v119h-14.3v-97.8h-.3s-3.2,9.3-5.3,15l-32.6,82.9h-11.5l-32.6-82.9c-2.3-6-5.3-15-5.3-15h-.3v97.8h-13.5v-119Z"/>
        <path d="M1751.5,1018.1c0-35.6,22.3-62.1,58.2-62.1s58.2,26.5,58.2,62.1-22.3,62.1-58.2,62.1-58.2-26.5-58.2-62.1ZM1852.6,1018.1c0-27.9-15-49.1-42.9-49.1s-42.9,21.1-42.9,49.1,15,48.9,42.9,48.9,42.9-21,42.9-48.9Z"/>
      </g>
    </g>
  </g>
</svg>